<?xml version="1.0" standalone="no"?>
<!DOCTYPE svg PUBLIC "-//W3C//DTD SVG 20010904//EN"
 "http://www.w3.org/TR/2001/REC-SVG-20010904/DTD/svg10.dtd">
<svg version="1.0" xmlns="http://www.w3.org/2000/svg"
 width="700.000000pt" height="700.000000pt" viewBox="0 0 700.000000 700.000000"
 preserveAspectRatio="xMidYMid meet">
<metadata>
Created by potrace 1.11, written by Peter Selinger 2001-2013
</metadata>
<g transform="translate(0.000000,700.000000) scale(0.100000,-0.100000)"
fill="#000000" stroke="none">
<path d="M2177 6344 c-1 -1 -47 -4 -102 -8 -100 -7 -110 -8 -195 -21 -70 -10
-221 -42 -312 -66 -46 -11 -90 -22 -98 -24 -39 -9 -266 -81 -455 -145 -178
-60 -388 -130 -510 -170 -72 -23 -277 -69 -341 -76 -38 -4 -73 -8 -79 -9 -5
-1 -27 -3 -47 -3 l-38 -2 0 -2584 0 -2583 42 3 c206 15 383 58 743 181 559
189 613 206 830 258 260 62 396 80 620 80 214 -1 343 -20 505 -77 110 -39 277
-124 310 -158 3 -3 30 -24 60 -47 30 -23 74 -61 97 -85 l42 -43 251 1 250 0
53 51 c129 125 308 234 472 286 68 21 92 28 145 42 141 35 436 39 670 9 115
-14 344 -66 510 -115 113 -34 512 -165 545 -179 83 -37 479 -154 593 -175 13
-2 31 -6 40 -9 20 -6 132 -18 182 -20 l35 -1 3 2583 2 2582 -32 1 c-107 5
-192 19 -343 56 -129 32 -150 38 -465 145 -146 49 -269 91 -275 92 -5 2 -17 6
-25 9 -52 20 -359 112 -408 122 -9 2 -53 12 -97 23 -44 11 -96 23 -115 26 -19
3 -46 8 -60 11 -14 3 -47 8 -75 11 -27 3 -52 7 -55 9 -10 6 -193 18 -280 18
-86 1 -220 -8 -275 -19 -235 -44 -408 -116 -574 -241 -78 -58 -175 -153 -220
-213 -14 -19 -32 -41 -39 -48 -21 -23 -118 -194 -138 -244 -17 -44 -34 -62
-34 -38 0 20 -101 216 -132 255 -155 197 -266 296 -438 391 -104 58 -301 123
-423 139 -91 13 -311 25 -320 19z"/>
</g>
</svg>
